<svg width="24" height="28" viewBox="0 0 24 28" fill="none" xmlns="http://www.w3.org/2000/svg">
<path d="M20.6461 14.6071H6.88697L5.20493 4.8877H22.0253C22.1483 4.88822 22.2698 4.91991 22.381 4.98055C22.4923 5.04119 22.5907 5.1293 22.6692 5.23865C22.7478 5.34801 22.8047 5.47596 22.8359 5.61348C22.867 5.751 22.8717 5.89475 22.8495 6.03458L21.4703 13.8101C21.4381 14.0349 21.3372 14.2389 21.186 14.3852C21.0348 14.5314 20.8432 14.6101 20.6461 14.6071V14.6071Z" fill="#F7E9DE" stroke="#F7E9DE" style="fill:#F7E9DE;fill:color(display-p3 0.9686 0.9137 0.8706);fill-opacity:1;stroke:#F7E9DE;stroke:color(display-p3 0.9686 0.9137 0.8706);stroke-opacity:1;" stroke-width="1.68204" stroke-linecap="round" stroke-linejoin="round"/>
<path d="M5.20508 4.88775L4.49862 1.77755C4.45984 1.55801 4.35663 1.36071 4.20643 1.21902C4.05624 1.07732 3.8683 0.999954 3.67442 1H0.999974" stroke="#F7E9DE" style="stroke:#F7E9DE;stroke:color(display-p3 0.9686 0.9137 0.8706);stroke-opacity:1;" stroke-width="1.68204" stroke-linecap="round" stroke-linejoin="round"/>
<path d="M6.88684 14.6072L7.5933 18.6893C7.63207 18.9088 7.73529 19.1062 7.88549 19.2478C8.03568 19.3895 8.22362 19.4669 8.4175 19.4669H18.6611" stroke="#F7E9DE" style="stroke:#F7E9DE;stroke:color(display-p3 0.9686 0.9137 0.8706);stroke-opacity:1;" stroke-width="1.68204" stroke-linecap="round" stroke-linejoin="round"/>
<path d="M17.8201 26.27C17.3556 26.27 16.9791 25.8349 16.9791 25.2981C16.9791 24.7613 17.3556 24.3262 17.8201 24.3262C18.2846 24.3262 18.6611 24.7613 18.6611 25.2981C18.6611 25.8349 18.2846 26.27 17.8201 26.27Z" fill="#F7E9DE" stroke="#F7E9DE" style="fill:#F7E9DE;fill:color(display-p3 0.9686 0.9137 0.8706);fill-opacity:1;stroke:#F7E9DE;stroke:color(display-p3 0.9686 0.9137 0.8706);stroke-opacity:1;" stroke-width="1.68204" stroke-linecap="round" stroke-linejoin="round"/>
<path d="M9.40996 26.27C8.94547 26.27 8.56893 25.8349 8.56893 25.2981C8.56893 24.7613 8.94547 24.3262 9.40996 24.3262C9.87444 24.3262 10.251 24.7613 10.251 25.2981C10.251 25.8349 9.87444 26.27 9.40996 26.27Z" fill="#F7E9DE" stroke="#F7E9DE" style="fill:#F7E9DE;fill:color(display-p3 0.9686 0.9137 0.8706);fill-opacity:1;stroke:#F7E9DE;stroke:color(display-p3 0.9686 0.9137 0.8706);stroke-opacity:1;" stroke-width="1.68204" stroke-linecap="round" stroke-linejoin="round"/>
</svg>
