<svg width="299" height="33" viewBox="0 0 299 33" fill="none" xmlns="http://www.w3.org/2000/svg">
<path d="M292.47 24.7014L293.789 18.4753H299L297.681 24.7014H292.47Z" fill="#4F364B" style="fill:#4F364B;fill:color(display-p3 0.3098 0.2118 0.2941);fill-opacity:1;"/>
<path d="M280.873 25.0399C279.001 25.0399 277.478 24.7015 276.305 24.0247C275.155 23.3254 274.309 22.4005 273.768 21.25C273.249 20.0996 272.989 18.8363 272.989 17.4602C272.989 16.039 273.249 14.6743 273.768 13.3659C274.286 12.0575 275.031 10.8957 276.001 9.8806C276.971 8.84291 278.144 8.03081 279.52 7.44429C280.919 6.85777 282.498 6.56451 284.257 6.56451C286.152 6.56451 287.675 6.90289 288.825 7.57964C289.976 8.25639 290.81 9.17001 291.329 10.3205C291.871 11.4484 292.141 12.7117 292.141 14.1103C292.141 15.5315 291.882 16.8963 291.363 18.2047C290.844 19.513 290.1 20.6861 289.13 21.7238C288.16 22.7389 286.975 23.551 285.577 24.1601C284.201 24.7466 282.633 25.0399 280.873 25.0399ZM281.787 19.6258C282.261 19.6258 282.712 19.513 283.141 19.2875C283.592 19.0393 283.986 18.7009 284.325 18.2723C284.686 17.8212 284.956 17.3023 285.137 16.7158C285.34 16.1293 285.442 15.4976 285.442 14.8209C285.442 14.2118 285.363 13.7043 285.205 13.2982C285.047 12.8696 284.81 12.5425 284.494 12.3169C284.178 12.0913 283.795 11.9785 283.344 11.9785C282.87 11.9785 282.407 12.1026 281.956 12.3507C281.528 12.5763 281.133 12.9147 280.772 13.3659C280.434 13.7945 280.163 14.302 279.96 14.8886C279.779 15.4751 279.689 16.1067 279.689 16.7835C279.689 17.37 279.768 17.8776 279.926 18.3062C280.084 18.7348 280.321 19.0619 280.637 19.2875C280.952 19.513 281.336 19.6258 281.787 19.6258Z" fill="#4F364B" style="fill:#4F364B;fill:color(display-p3 0.3098 0.2118 0.2941);fill-opacity:1;"/>
<path d="M260.399 24.9045C258.956 24.9045 257.659 24.6225 256.508 24.0586C255.38 23.4946 254.421 22.7276 253.632 21.7576C252.842 20.765 252.245 19.6597 251.839 18.4415C251.432 17.2008 251.229 15.9263 251.229 14.6179C251.229 13.2869 251.466 11.956 251.94 10.625C252.414 9.27152 253.079 7.99697 253.936 6.80137C254.816 5.58322 255.854 4.51169 257.05 3.5868C258.245 2.63935 259.576 1.89492 261.042 1.35352C262.531 0.812114 264.11 0.541412 265.78 0.541412C267.99 0.541412 269.818 1.02642 271.261 1.99643C272.705 2.94388 273.653 4.20716 274.104 5.78624L268.317 9.37303C268.205 8.58349 267.934 7.97441 267.505 7.5458C267.099 7.11719 266.614 6.82393 266.05 6.66602C265.509 6.48555 264.956 6.39532 264.392 6.39532C263.355 6.39532 262.43 6.64346 261.618 7.13975C260.828 7.61348 260.163 8.24511 259.621 9.03465C259.08 9.8242 258.662 10.6701 258.369 11.5725C258.099 12.4748 257.963 13.3433 257.963 14.178C257.963 15.0578 258.099 15.8699 258.369 16.6143C258.662 17.3362 259.091 17.9227 259.655 18.3738C260.219 18.825 260.93 19.0506 261.787 19.0506C262.328 19.0506 262.903 18.9604 263.513 18.7799C264.144 18.5769 264.742 18.261 265.306 17.8324C265.87 17.4038 266.344 16.8286 266.727 16.1067L271.431 19.3213C270.731 20.4943 269.761 21.4982 268.52 22.3328C267.302 23.1675 265.971 23.8104 264.528 24.2616C263.084 24.6902 261.708 24.9045 260.399 24.9045Z" fill="#4F364B" style="fill:#4F364B;fill:color(display-p3 0.3098 0.2118 0.2941);fill-opacity:1;"/>
<path d="M223.174 27.8483C224.031 27.8483 224.73 27.8032 225.272 27.713C225.836 27.6228 226.309 27.4536 226.693 27.2054C227.099 26.9798 227.482 26.6528 227.843 26.2241L228.825 25.0737L226.49 6.90286H233.021L233.427 19.2536L234.577 17.3587C234.983 16.6819 235.367 15.9601 235.728 15.1931C236.111 14.4035 236.461 13.5689 236.777 12.6891C237.115 11.7868 237.408 10.8506 237.656 9.88057C237.927 8.91056 238.164 7.91799 238.367 6.90286H244.525C244.232 7.98567 243.905 9.01207 243.544 9.98209C243.183 10.9521 242.755 11.9559 242.258 12.9936C241.762 14.0313 241.13 15.2156 240.363 16.5466C239.619 17.855 238.683 19.4115 237.555 21.2162L234.848 25.5812C234.036 26.8896 233.224 27.9837 232.412 28.8635C231.622 29.7658 230.787 30.4877 229.908 31.0291C229.05 31.593 228.125 31.9991 227.133 32.2472C226.163 32.4954 225.091 32.6194 223.918 32.6194L223.174 27.8483Z" fill="#4F364B" style="fill:#4F364B;fill:color(display-p3 0.3098 0.2118 0.2941);fill-opacity:1;"/>
<path d="M218.795 25.0398C217.397 25.0398 216.325 24.7353 215.581 24.1262C214.859 23.4946 214.498 22.5922 214.498 21.4192C214.498 21.1711 214.509 20.9229 214.532 20.6748C214.554 20.4266 214.6 20.1672 214.667 19.8965L218.897 0H225.326L221.57 17.6294C221.548 17.7647 221.525 17.9001 221.502 18.0354C221.48 18.1482 221.469 18.261 221.469 18.3738C221.469 19.231 221.875 19.6597 222.687 19.6597C222.935 19.6597 223.217 19.6145 223.533 19.5243C223.849 19.4341 224.153 19.31 224.446 19.1521L224.243 23.8894C223.431 24.2503 222.529 24.5323 221.536 24.7353C220.544 24.9383 219.63 25.0398 218.795 25.0398Z" fill="#4F364B" style="fill:#4F364B;fill:color(display-p3 0.3098 0.2118 0.2941);fill-opacity:1;"/>
<path d="M196.362 6.90289H201.946L201.37 9.57606C202.16 8.60605 203.051 7.86162 204.043 7.34278C205.036 6.82394 206.164 6.56451 207.427 6.56451C208.69 6.56451 209.773 6.88033 210.676 7.51197C211.601 8.12104 212.311 8.96698 212.807 10.0498C213.304 11.11 213.552 12.3395 213.552 13.7381C213.552 15.2495 213.292 16.6932 212.774 18.0693C212.255 19.4228 211.555 20.6297 210.676 21.6899C209.796 22.7276 208.781 23.551 207.63 24.1601C206.502 24.7466 205.329 25.0399 204.111 25.0399C202.916 25.0399 201.923 24.7917 201.133 24.2954C200.344 23.7766 199.825 23.0322 199.577 22.0621L197.479 31.9089H191.05L196.362 6.90289ZM203.028 19.6258C203.502 19.6258 203.964 19.5018 204.416 19.2536C204.867 18.9829 205.273 18.622 205.634 18.1708C205.995 17.7196 206.277 17.2008 206.48 16.6143C206.705 16.0278 206.818 15.4187 206.818 14.7871C206.818 14.2231 206.717 13.7381 206.514 13.332C206.333 12.9034 206.062 12.5763 205.701 12.3507C205.341 12.1026 204.901 11.9785 204.382 11.9785C204.111 11.9785 203.852 12.0236 203.604 12.1139C203.355 12.1816 203.107 12.2944 202.859 12.4523C202.611 12.5876 202.363 12.7681 202.115 12.9937C201.867 13.2192 201.607 13.4899 201.336 13.8058L200.66 16.885C200.75 17.4038 200.897 17.8776 201.1 18.3062C201.325 18.7122 201.607 19.0393 201.946 19.2875C202.284 19.513 202.645 19.6258 203.028 19.6258Z" fill="#4F364B" style="fill:#4F364B;fill:color(display-p3 0.3098 0.2118 0.2941);fill-opacity:1;"/>
<path d="M175.181 6.90289H180.764L180.189 9.57606C180.978 8.60605 181.869 7.86162 182.862 7.34278C183.854 6.82394 184.982 6.56451 186.246 6.56451C187.509 6.56451 188.592 6.88033 189.494 7.51197C190.419 8.12104 191.129 8.96698 191.626 10.0498C192.122 11.11 192.37 12.3395 192.37 13.7381C192.37 15.2495 192.111 16.6932 191.592 18.0693C191.073 19.4228 190.374 20.6297 189.494 21.6899C188.614 22.7276 187.599 23.551 186.449 24.1601C185.321 24.7466 184.148 25.0399 182.929 25.0399C181.734 25.0399 180.741 24.7917 179.952 24.2954C179.162 23.7766 178.643 23.0322 178.395 22.0621L176.297 31.9089H169.868L175.181 6.90289ZM181.847 19.6258C182.32 19.6258 182.783 19.5018 183.234 19.2536C183.685 18.9829 184.091 18.622 184.452 18.1708C184.813 17.7196 185.095 17.2008 185.298 16.6143C185.524 16.0278 185.636 15.4187 185.636 14.7871C185.636 14.2231 185.535 13.7381 185.332 13.332C185.151 12.9034 184.881 12.5763 184.52 12.3507C184.159 12.1026 183.719 11.9785 183.2 11.9785C182.929 11.9785 182.67 12.0236 182.422 12.1139C182.174 12.1816 181.926 12.2944 181.677 12.4523C181.429 12.5876 181.181 12.7681 180.933 12.9937C180.685 13.2192 180.425 13.4899 180.155 13.8058L179.478 16.885C179.568 17.4038 179.715 17.8776 179.918 18.3062C180.144 18.7122 180.426 19.0393 180.764 19.2875C181.102 19.513 181.463 19.6258 181.847 19.6258Z" fill="#4F364B" style="fill:#4F364B;fill:color(display-p3 0.3098 0.2118 0.2941);fill-opacity:1;"/>
<path d="M155.516 25.0398C152.741 25.0398 151.354 23.6412 151.354 20.844C151.354 20.5056 151.376 20.1559 151.421 19.795C151.466 19.4115 151.534 19.0167 151.624 18.6107L154.128 6.90286H160.524L158.358 17.1557C158.29 17.494 158.256 17.7986 158.256 18.0693C158.256 19.107 158.685 19.6258 159.542 19.6258C159.813 19.6258 160.095 19.5807 160.388 19.4905C160.681 19.4002 161.009 19.2198 161.369 18.9491C161.753 18.6784 162.159 18.2949 162.588 17.7986L164.922 6.90286H171.352L169.084 17.5955C169.062 17.7535 169.039 17.9001 169.017 18.0354C168.994 18.1708 168.983 18.2949 168.983 18.4077C168.983 18.9716 169.287 19.2649 169.897 19.2874L168.746 24.7014C168.16 24.8142 167.629 24.8932 167.156 24.9383C166.705 25.006 166.31 25.0398 165.971 25.0398C165.001 25.0398 164.201 24.8594 163.569 24.4984C162.96 24.1149 162.655 23.472 162.655 22.5697C162.655 22.502 162.655 22.4343 162.655 22.3667C162.678 22.299 162.689 22.2313 162.689 22.1636C162.712 22.0734 162.723 21.9944 162.723 21.9268C161.708 23.0321 160.602 23.833 159.407 24.3292C158.211 24.803 156.914 25.0398 155.516 25.0398Z" fill="#4F364B" style="fill:#4F364B;fill:color(display-p3 0.3098 0.2118 0.2941);fill-opacity:1;"/>
<path d="M139.347 25.006C137.701 25.006 136.02 24.7466 134.305 24.2278C132.591 23.7089 131.136 23.0322 129.94 22.1975L134.001 16.4113C133.978 16.4113 134.136 16.5466 134.475 16.8173C134.836 17.088 135.332 17.3926 135.964 17.7309C136.618 18.0693 137.351 18.3739 138.163 18.6446C138.975 18.9153 139.821 19.0506 140.701 19.0506C141.22 19.0506 141.603 18.9942 141.851 18.8814C142.099 18.7461 142.257 18.5882 142.325 18.4077C142.415 18.2047 142.46 18.0016 142.46 17.7986C142.46 17.3926 142.246 17.0655 141.817 16.8173C141.389 16.5466 140.836 16.3098 140.159 16.1067C139.505 15.8812 138.806 15.6217 138.061 15.3285C137.069 14.9224 136.246 14.4825 135.591 14.0088C134.937 13.5125 134.441 12.9373 134.102 12.2831C133.787 11.6289 133.629 10.8732 133.629 10.016C133.629 8.50455 133.922 7.16232 134.509 5.98928C135.118 4.79369 135.93 3.78984 136.945 2.97774C137.96 2.16564 139.088 1.54528 140.329 1.11667C141.569 0.68806 142.833 0.473755 144.118 0.473755C145.246 0.473755 146.307 0.620384 147.299 0.913644C148.292 1.18434 149.205 1.52272 150.04 1.92877C150.875 2.33482 151.597 2.71832 152.206 3.07925L148.213 8.52711C148.258 8.52711 148.123 8.41431 147.807 8.18873C147.491 7.96315 147.062 7.715 146.521 7.4443C145.979 7.15104 145.37 6.89162 144.694 6.66604C144.017 6.44045 143.34 6.32766 142.663 6.32766C142.348 6.32766 142.043 6.38406 141.75 6.49685C141.479 6.58708 141.265 6.73371 141.107 6.93674C140.949 7.13976 140.87 7.41047 140.87 7.74884C140.87 8.08722 141.017 8.3692 141.31 8.59478C141.626 8.82037 142.054 9.03467 142.596 9.2377C143.137 9.41816 143.757 9.64375 144.457 9.91445C145.54 10.3205 146.487 10.7717 147.299 11.268C148.134 11.7417 148.777 12.3395 149.228 13.0613C149.679 13.7832 149.905 14.7081 149.905 15.836C149.905 17.5505 149.589 18.9942 148.957 20.1672C148.326 21.3403 147.491 22.2877 146.453 23.0096C145.416 23.7089 144.276 24.2165 143.036 24.5323C141.795 24.8481 140.565 25.006 139.347 25.006Z" fill="#4F364B" style="fill:#4F364B;fill:color(display-p3 0.3098 0.2118 0.2941);fill-opacity:1;"/>
<path d="M108.178 25.0399C106.869 25.0399 105.741 24.7353 104.794 24.1262C103.869 23.5172 103.147 22.6712 102.628 21.5884C102.132 20.5056 101.884 19.2649 101.884 17.8663C101.884 16.3323 102.132 14.8886 102.628 13.5351C103.147 12.159 103.858 10.9521 104.76 9.91444C105.662 8.87675 106.689 8.06465 107.839 7.47813C108.99 6.86905 110.208 6.56451 111.494 6.56451C112.554 6.56451 113.479 6.83522 114.268 7.37662C115.058 7.89546 115.588 8.61733 115.859 9.54222L116.4 7.03824H122.863L120.596 17.5956C120.573 17.7535 120.551 17.9001 120.528 18.0355C120.506 18.1708 120.494 18.2949 120.494 18.4077C120.494 18.9716 120.799 19.2649 121.408 19.2875L120.258 24.7015C119.671 24.8143 119.141 24.8932 118.667 24.9383C118.216 25.006 117.833 25.0399 117.517 25.0399C116.524 25.0399 115.723 24.8481 115.114 24.4646C114.528 24.0811 114.235 23.4044 114.235 22.4344C114.235 22.3667 114.235 22.3103 114.235 22.2652C114.235 22.1975 114.235 22.1411 114.235 22.096C114.257 22.0283 114.268 21.9719 114.268 21.9268C113.456 23.0096 112.509 23.7991 111.426 24.2954C110.366 24.7917 109.283 25.0399 108.178 25.0399ZM111.088 19.6258C111.358 19.6258 111.618 19.592 111.866 19.5243C112.114 19.4341 112.362 19.3213 112.61 19.1859C112.858 19.028 113.107 18.8363 113.355 18.6107C113.625 18.3626 113.896 18.0919 114.167 17.7986L114.844 14.6179C114.776 14.099 114.629 13.6479 114.404 13.2644C114.178 12.8583 113.896 12.5425 113.558 12.3169C113.219 12.0913 112.847 11.9785 112.441 11.9785C111.967 11.9785 111.505 12.1139 111.054 12.3846C110.603 12.6327 110.197 12.9824 109.836 13.4335C109.475 13.8847 109.181 14.4036 108.956 14.9901C108.753 15.5766 108.651 16.1857 108.651 16.8173C108.651 17.3813 108.742 17.8776 108.922 18.3062C109.125 18.7122 109.407 19.0393 109.768 19.2875C110.129 19.513 110.569 19.6258 111.088 19.6258Z" fill="#4F364B" style="fill:#4F364B;fill:color(display-p3 0.3098 0.2118 0.2941);fill-opacity:1;"/>
<path d="M90.7284 25.0399C89.0139 25.0399 87.5815 24.7015 86.431 24.0247C85.3031 23.3254 84.4571 22.4118 83.8932 21.2839C83.3518 20.1334 83.0811 18.8927 83.0811 17.5617C83.0811 16.1857 83.3518 14.8434 83.8932 13.5351C84.4346 12.2267 85.2128 11.0536 86.228 10.016C87.2431 8.9557 88.4612 8.12104 89.8824 7.51197C91.3036 6.88033 92.894 6.56451 94.6535 6.56451C96.7289 6.56451 98.3644 7.01568 99.56 7.91802C100.778 8.82035 101.59 9.98211 101.996 11.4033L95.3303 13.2982C95.1724 12.8696 94.9355 12.5425 94.6197 12.3169C94.3039 12.0913 93.9204 11.9785 93.4692 11.9785C92.9955 11.9785 92.533 12.1026 92.0819 12.3507C91.6533 12.5763 91.2585 12.9034 90.8975 13.332C90.5592 13.7606 90.2885 14.2795 90.0854 14.8886C89.8824 15.4751 89.7809 16.1293 89.7809 16.8511C89.7809 17.4151 89.8599 17.9114 90.0178 18.34C90.1982 18.7461 90.4464 19.0619 90.7622 19.2875C91.078 19.513 91.4389 19.6258 91.845 19.6258C92.1383 19.6258 92.4202 19.5807 92.6909 19.4905C92.9842 19.3777 93.2549 19.2198 93.503 19.0168C93.7737 18.8137 94.0219 18.5769 94.2475 18.3062L100.101 20.2011C99.4246 21.1485 98.6125 21.9832 97.6651 22.7051C96.7402 23.4269 95.6912 24.0022 94.5182 24.4308C93.3677 24.8368 92.1044 25.0399 90.7284 25.0399Z" fill="#4F364B" style="fill:#4F364B;fill:color(display-p3 0.3098 0.2118 0.2941);fill-opacity:1;"/>
<path d="M67.6659 25.0399C66.3575 25.0399 65.2296 24.7353 64.2821 24.1262C63.3572 23.5172 62.6353 22.6712 62.1165 21.5884C61.6202 20.5056 61.3721 19.2649 61.3721 17.8663C61.3721 16.3323 61.6202 14.8886 62.1165 13.5351C62.6353 12.159 63.3459 10.9521 64.2483 9.91444C65.1506 8.87675 66.177 8.06465 67.3275 7.47813C68.478 6.86905 69.6961 6.56451 70.982 6.56451C72.0422 6.56451 72.9671 6.83522 73.7566 7.37662C74.5462 7.89546 75.0763 8.61733 75.347 9.54222L75.8884 7.03824H82.3514L80.0843 17.5956C80.0617 17.7535 80.0392 17.9001 80.0166 18.0355C79.994 18.1708 79.9828 18.2949 79.9828 18.4077C79.9828 18.9716 80.2873 19.2649 80.8964 19.2875L79.7459 24.7015C79.1594 24.8143 78.6293 24.8932 78.1555 24.9383C77.7044 25.006 77.3209 25.0399 77.005 25.0399C76.0125 25.0399 75.2117 24.8481 74.6026 24.4646C74.0161 24.0811 73.7228 23.4044 73.7228 22.4344C73.7228 22.3667 73.7228 22.3103 73.7228 22.2652C73.7228 22.1975 73.7228 22.1411 73.7228 22.096C73.7454 22.0283 73.7566 21.9719 73.7566 21.9268C72.9445 23.0096 71.9971 23.7991 70.9143 24.2954C69.854 24.7917 68.7712 25.0399 67.6659 25.0399ZM70.5759 19.6258C70.8466 19.6258 71.106 19.592 71.3542 19.5243C71.6023 19.4341 71.8504 19.3213 72.0986 19.1859C72.3467 19.028 72.5949 18.8363 72.843 18.6107C73.1137 18.3626 73.3844 18.0919 73.6551 17.7986L74.3319 14.6179C74.2642 14.099 74.1176 13.6479 73.892 13.2644C73.6664 12.8583 73.3844 12.5425 73.046 12.3169C72.7077 12.0913 72.3355 11.9785 71.9294 11.9785C71.4557 11.9785 70.9932 12.1139 70.5421 12.3846C70.0909 12.6327 69.6848 12.9824 69.3239 13.4335C68.963 13.8847 68.6697 14.4036 68.4441 14.9901C68.2411 15.5766 68.1396 16.1857 68.1396 16.8173C68.1396 17.3813 68.2298 17.8776 68.4103 18.3062C68.6133 18.7122 68.8953 19.0393 69.2562 19.2875C69.6172 19.513 70.0571 19.6258 70.5759 19.6258Z" fill="#4F364B" style="fill:#4F364B;fill:color(display-p3 0.3098 0.2118 0.2941);fill-opacity:1;"/>
<path d="M53.937 25.0398C52.5384 25.0398 51.4669 24.7353 50.7225 24.1262C50.0006 23.4946 49.6396 22.5922 49.6396 21.4192C49.6396 21.1711 49.6509 20.9229 49.6735 20.6748C49.696 20.4266 49.7412 20.1672 49.8088 19.8965L54.0385 0H60.4677L56.7117 17.6294C56.6892 17.7647 56.6666 17.9001 56.644 18.0354C56.6215 18.1482 56.6102 18.261 56.6102 18.3738C56.6102 19.231 57.0163 19.6597 57.8284 19.6597C58.0765 19.6597 58.3585 19.6145 58.6743 19.5243C58.9901 19.4341 59.2946 19.31 59.5879 19.1521L59.3849 23.8894C58.5728 24.2503 57.6704 24.5323 56.6779 24.7353C55.6853 24.9383 54.7717 25.0398 53.937 25.0398Z" fill="#4F364B" style="fill:#4F364B;fill:color(display-p3 0.3098 0.2118 0.2941);fill-opacity:1;"/>
<path d="M34.1249 25.0399C32.8165 25.0399 31.6885 24.7353 30.7411 24.1262C29.8162 23.5172 29.0943 22.6712 28.5755 21.5884C28.0792 20.5056 27.8311 19.2649 27.8311 17.8663C27.8311 16.3323 28.0792 14.8886 28.5755 13.5351C29.0943 12.159 29.8049 10.9521 30.7073 9.91444C31.6096 8.87675 32.636 8.06465 33.7865 7.47813C34.937 6.86905 36.1551 6.56451 37.4409 6.56451C38.5012 6.56451 39.4261 6.83522 40.2156 7.37662C41.0052 7.89546 41.5353 8.61733 41.806 9.54222L42.3474 7.03824H48.8104L46.5433 17.5956C46.5207 17.7535 46.4981 17.9001 46.4756 18.0355C46.453 18.1708 46.4417 18.2949 46.4417 18.4077C46.4417 18.9716 46.7463 19.2649 47.3554 19.2875L46.2049 24.7015C45.6184 24.8143 45.0882 24.8932 44.6145 24.9383C44.1633 25.006 43.7799 25.0399 43.464 25.0399C42.4715 25.0399 41.6706 24.8481 41.0616 24.4646C40.475 24.0811 40.1818 23.4044 40.1818 22.4344C40.1818 22.3667 40.1818 22.3103 40.1818 22.2652C40.1818 22.1975 40.1818 22.1411 40.1818 22.096C40.2043 22.0283 40.2156 21.9719 40.2156 21.9268C39.4035 23.0096 38.4561 23.7991 37.3733 24.2954C36.313 24.7917 35.2302 25.0399 34.1249 25.0399ZM37.0349 19.6258C37.3056 19.6258 37.565 19.592 37.8132 19.5243C38.0613 19.4341 38.3094 19.3213 38.5576 19.1859C38.8057 19.028 39.0539 18.8363 39.302 18.6107C39.5727 18.3626 39.8434 18.0919 40.1141 17.7986L40.7909 14.6179C40.7232 14.099 40.5766 13.6479 40.351 13.2644C40.1254 12.8583 39.8434 12.5425 39.505 12.3169C39.1667 12.0913 38.7944 11.9785 38.3884 11.9785C37.9147 11.9785 37.4522 12.1139 37.001 12.3846C36.5499 12.6327 36.1438 12.9824 35.7829 13.4335C35.422 13.8847 35.1287 14.4036 34.9031 14.9901C34.7001 15.5766 34.5986 16.1857 34.5986 16.8173C34.5986 17.3813 34.6888 17.8776 34.8693 18.3062C35.0723 18.7122 35.3543 19.0393 35.7152 19.2875C36.0762 19.513 36.516 19.6258 37.0349 19.6258Z" fill="#4F364B" style="fill:#4F364B;fill:color(display-p3 0.3098 0.2118 0.2941);fill-opacity:1;"/>
<path d="M5.10948 0.676758H12.3169L14.5163 11.9785L21.5546 0.676758H28.7281L23.6187 24.7015H17.0203L19.6935 12.0462L14.3471 20.9455H10.8619L9.30534 12.0462L6.59834 24.7015H0L5.10948 0.676758Z" fill="#4F364B" style="fill:#4F364B;fill:color(display-p3 0.3098 0.2118 0.2941);fill-opacity:1;"/>
</svg>
